<?xml version="1.0" encoding="UTF-8"?>
<svg xmlns="http://www.w3.org/2000/svg" xmlns:xlink="http://www.w3.org/1999/xlink" width="128px" height="px" viewBox="0 0 128 128" version="1.1">
<defs>
<linearGradient id="linear0" gradientUnits="userSpaceOnUse" x1="0.621023" y1="0" x2="1.081972" y2="0.378636" gradientTransform="matrix(94.542969,0,0,127.171875,0.417969,0.40625)">
<stop offset="0" style="stop-color:rgb(25.882353%,52.156863%,92.156863%);stop-opacity:1;"/>
<stop offset="1" style="stop-color:rgb(18.039216%,78.039216%,100%);stop-opacity:1;"/>
</linearGradient>
<linearGradient id="linear1" gradientUnits="userSpaceOnUse" x1="0.696441" y1="0" x2="0.540429" y2="1.084567" gradientTransform="matrix(94.542969,0,0,127.171875,0.417969,0.40625)">
<stop offset="0" style="stop-color:rgb(16.078431%,80.392157%,100%);stop-opacity:1;"/>
<stop offset="0.378601" style="stop-color:rgb(7.843137%,55.686275%,100%);stop-opacity:1;"/>
<stop offset="1" style="stop-color:rgb(3.921569%,37.647059%,100%);stop-opacity:1;"/>
</linearGradient>
<linearGradient id="linear2" gradientUnits="userSpaceOnUse" x1="0.696908" y1="-0.129744" x2="0.167229" y2="1.173912" gradientTransform="matrix(31.492188,0,0,49.558594,96.175781,39.402344)">
<stop offset="0" style="stop-color:rgb(98.039216%,50.588235%,43.137255%);stop-opacity:1;"/>
<stop offset="0.414726" style="stop-color:rgb(96.862745%,29.019608%,36.078431%);stop-opacity:1;"/>
<stop offset="1" style="stop-color:rgb(96.078431%,11.372549%,17.254902%);stop-opacity:1;"/>
</linearGradient>
<linearGradient id="linear3" gradientUnits="userSpaceOnUse" x1="0.68128" y1="-0.356906" x2="0.304401" y2="1.149427" gradientTransform="matrix(30.210938,0,0,30.183594,49.226562,49.1875)">
<stop offset="0" style="stop-color:rgb(98.039216%,55.686275%,49.019608%);stop-opacity:1;"/>
<stop offset="0.512635" style="stop-color:rgb(96.862745%,29.019608%,36.078431%);stop-opacity:1;"/>
<stop offset="1" style="stop-color:rgb(96.078431%,11.372549%,17.254902%);stop-opacity:1;"/>
</linearGradient>
</defs>
<g id="surface1">
<path style=" stroke:none;fill-rule:nonzero;fill:url(#linear0);" d="M 58.617188 2.671875 L 2.675781 58.566406 C -0.332031 61.574219 -0.332031 66.425781 2.675781 69.433594 L 58.617188 125.328125 C 61.625 128.332031 66.480469 128.332031 69.488281 125.328125 L 92.945312 101.890625 C 95.636719 99.199219 95.636719 94.835938 92.945312 92.144531 C 90.25 89.453125 85.882812 89.453125 83.191406 92.144531 L 65.410156 109.910156 C 64.660156 110.660156 63.523438 110.660156 62.777344 109.910156 L 18.101562 65.277344 C 17.355469 64.527344 17.355469 63.390625 18.101562 62.644531 L 62.777344 18.007812 C 63.523438 17.261719 64.660156 17.261719 65.410156 18.007812 L 83.191406 35.773438 C 85.882812 38.464844 90.25 38.464844 92.945312 35.773438 C 95.636719 33.082031 95.636719 28.71875 92.945312 26.027344 L 69.492188 2.59375 C 66.472656 -0.34375 61.613281 -0.320312 58.617188 2.671875 Z M 58.617188 2.671875 "/>
<path style=" stroke:none;fill-rule:nonzero;fill:url(#linear1);" d="M 58.617188 2.671875 L 2.675781 58.566406 C -0.332031 61.574219 -0.332031 66.425781 2.675781 69.433594 L 58.617188 125.328125 C 61.625 128.332031 66.480469 128.332031 69.488281 125.328125 L 92.945312 101.890625 C 95.636719 99.199219 95.636719 94.835938 92.945312 92.144531 C 90.25 89.453125 85.882812 89.453125 83.191406 92.144531 L 65.410156 109.910156 C 64.660156 110.660156 63.523438 110.660156 62.777344 109.910156 L 18.101562 65.277344 C 17.355469 64.527344 17.355469 63.390625 18.101562 62.644531 L 62.777344 18.007812 C 64.640625 16.402344 67.679688 13.148438 72.148438 12.386719 C 75.464844 11.820312 79.09375 13.066406 83.03125 16.121094 C 80.398438 13.488281 75.886719 8.980469 69.492188 2.59375 C 66.472656 -0.34375 61.613281 -0.320312 58.617188 2.671875 Z M 58.617188 2.671875 "/>
<path style=" stroke:none;fill-rule:nonzero;fill:url(#linear2);" d="M 98.359375 86.945312 C 101.050781 89.636719 105.417969 89.636719 108.113281 86.945312 L 125.414062 69.660156 C 128.421875 66.65625 128.421875 61.800781 125.414062 58.796875 L 107.960938 41.417969 C 105.261719 38.730469 100.894531 38.734375 98.199219 41.429688 C 95.503906 44.121094 95.503906 48.484375 98.199219 51.175781 L 109.988281 62.953125 C 110.734375 63.699219 110.734375 64.835938 109.988281 65.582031 L 98.359375 77.203125 C 95.664062 79.890625 95.664062 84.253906 98.359375 86.945312 Z M 98.359375 86.945312 "/>
<path style=" stroke:none;fill-rule:evenodd;fill:url(#linear3);" d="M 79.4375 64.28125 C 79.4375 55.945312 72.675781 49.1875 64.332031 49.1875 C 55.992188 49.1875 49.226562 55.945312 49.226562 64.28125 C 49.226562 72.613281 55.992188 79.371094 64.332031 79.371094 C 72.675781 79.371094 79.4375 72.613281 79.4375 64.28125 Z M 79.4375 64.28125 "/>
</g>
</svg>
