<?xml version="1.0" standalone="no"?><svg xmlns:xlink="http://www.w3.org/1999/xlink" xmlns="http://www.w3.org/2000/svg" viewBox="0 0 1000 2000" preserveAspectRatio="xMaxYMax slice"><g transform="scale(5.194805194805195)"><rect x="0" y="0" width="192.5" height="385" fill="#E8EDDF"/><rect x="6.02" y="6.02" width="12.03" height="12.03" fill="#CFDBD5"/><rect x="30.08" y="6.02" width="12.03" height="12.03" fill="#333533"/><rect x="54.14" y="6.02" width="12.03" height="12.03" fill="#F5CB5C"/><rect x="126.33" y="6.02" width="12.03" height="12.03" fill="#333533"/><rect x="6.02" y="30.08" width="12.03" height="12.03" fill="#333533"/><rect x="126.33" y="30.08" width="12.03" height="12.03" fill="#F5CB5C"/><rect x="174.45" y="30.08" width="12.03" height="12.03" fill="#333533"/><rect x="78.2" y="54.14" width="12.03" height="12.03" fill="#333533"/><rect x="102.27" y="54.14" width="12.03" height="12.03" fill="#F5CB5C"/><rect x="150.39" y="54.14" width="12.03" height="12.03" fill="#333533"/><rect x="174.45" y="54.14" width="12.03" height="12.03" fill="#CFDBD5"/><rect x="30.08" y="78.2" width="12.03" height="12.03" fill="#F5CB5C"/><rect x="126.33" y="78.2" width="12.03" height="12.03" fill="#333533"/><rect x="150.39" y="78.2" width="12.03" height="12.03" fill="#333533"/><rect x="102.27" y="102.27" width="12.03" height="12.03" fill="#333533"/><rect x="54.14" y="150.39" width="12.03" height="12.03" fill="#F5CB5C"/><rect x="78.2" y="174.45" width="12.03" height="12.03" fill="#333533"/><rect x="102.27" y="174.45" width="12.03" height="12.03" fill="#F5CB5C"/><rect x="174.45" y="174.45" width="12.03" height="12.03" fill="#F5CB5C"/><rect x="102.27" y="198.52" width="12.03" height="12.03" fill="#333533"/><rect x="150.39" y="198.52" width="12.03" height="12.03" fill="#F5CB5C"/><rect x="174.45" y="198.52" width="12.03" height="12.03" fill="#333533"/><rect x="30.08" y="222.58" width="12.03" height="12.03" fill="#CFDBD5"/><rect x="54.14" y="222.58" width="12.03" height="12.03" fill="#333533"/><rect x="126.33" y="222.58" width="12.03" height="12.03" fill="#F5CB5C"/><rect x="150.39" y="222.58" width="12.03" height="12.03" fill="#333533"/><rect x="30.08" y="246.64" width="12.03" height="12.03" fill="#CFDBD5"/><rect x="78.2" y="246.64" width="12.03" height="12.03" fill="#F5CB5C"/><rect x="102.27" y="246.64" width="12.03" height="12.03" fill="#CFDBD5"/><rect x="30.08" y="270.7" width="12.03" height="12.03" fill="#CFDBD5"/><rect x="54.14" y="270.7" width="12.03" height="12.03" fill="#F5CB5C"/><rect x="78.2" y="270.7" width="12.03" height="12.03" fill="#CFDBD5"/><rect x="150.39" y="270.7" width="12.03" height="12.03" fill="#F5CB5C"/><rect x="30.08" y="294.77" width="12.03" height="12.03" fill="#333533"/><rect x="54.14" y="294.77" width="12.03" height="12.03" fill="#F5CB5C"/><rect x="102.27" y="294.77" width="12.03" height="12.03" fill="#F5CB5C"/><rect x="126.33" y="294.77" width="12.03" height="12.03" fill="#333533"/><rect x="150.39" y="294.77" width="12.03" height="12.03" fill="#333533"/><rect x="6.02" y="318.83" width="12.03" height="12.03" fill="#F5CB5C"/><rect x="30.08" y="318.83" width="12.03" height="12.03" fill="#333533"/><rect x="126.33" y="318.83" width="12.03" height="12.03" fill="#CFDBD5"/><rect x="150.39" y="318.83" width="12.03" height="12.03" fill="#CFDBD5"/><rect x="6.02" y="342.89" width="12.03" height="12.03" fill="#CFDBD5"/><rect x="30.08" y="366.95" width="12.03" height="12.03" fill="#333533"/><rect x="78.2" y="366.95" width="12.03" height="12.03" fill="#333533"/><rect x="174.45" y="366.95" width="12.03" height="12.03" fill="#F5CB5C"/></g></svg>